<svg width="28" height="28" viewBox="0 0 28 28" fill="none" xmlns="http://www.w3.org/2000/svg">
<path d="M22.1667 2.33325H10.5C9.2132 2.33325 8.1667 3.37975 8.1667 4.66659V11.1836L2.6752 16.6751C2.51209 16.8382 2.40102 17.0461 2.35602 17.2724C2.31103 17.4987 2.33413 17.7332 2.42241 17.9463C2.51069 18.1595 2.66019 18.3417 2.852 18.4699C3.04381 18.5981 3.26933 18.6665 3.50004 18.6666V24.4999C3.50004 24.8093 3.62295 25.1061 3.84174 25.3249C4.06054 25.5437 4.35728 25.6666 4.6667 25.6666H23.3334C23.6428 25.6666 23.9395 25.5437 24.1583 25.3249C24.3771 25.1061 24.5 24.8093 24.5 24.4999V4.66659C24.5 3.37975 23.4535 2.33325 22.1667 2.33325ZM12.8334 23.3333H5.83337V16.8163L9.33337 13.3163L12.8334 16.8163V23.3333ZM22.1667 23.3333H15.1667V18.6666C15.3977 18.6671 15.6236 18.599 15.8157 18.4709C16.0079 18.3428 16.1577 18.1605 16.2461 17.9471C16.3345 17.7337 16.3574 17.4989 16.3121 17.2724C16.2668 17.0459 16.1552 16.838 15.9915 16.6751L10.5 11.1836V4.66659H22.1667V23.3333Z" fill="black"/>
<path d="M12.8333 7H15.1666V9.33333H12.8333V7ZM17.5 7H19.8333V9.33333H17.5V7ZM17.5 11.7028H19.8333V14H17.5V11.7028ZM17.5 16.3333H19.8333V18.6667H17.5V16.3333ZM8.16663 17.5H10.5V19.8333H8.16663V17.5Z" fill="black"/>
</svg>
